<mxfile host="Electron" agent="Mozilla/5.0 (Macintosh; Intel Mac OS X 10_15_7) AppleWebKit/537.36 (KHTML, like Gecko) draw.io/27.0.5 Chrome/134.0.6998.205 Electron/35.3.0 Safari/537.36" version="27.0.5">
  <diagram name="第 1 页" id="CHSsfzblSIfve4NHa6aG">
    <mxGraphModel dx="706" dy="604" grid="1" gridSize="10" guides="1" tooltips="1" connect="1" arrows="1" fold="1" page="1" pageScale="1" pageWidth="827" pageHeight="1169" math="0" shadow="0">
      <root>
        <mxCell id="0" />
        <mxCell id="1" parent="0" />
        <mxCell id="aShT70XuTfXJ-1r4DVtl-1" value="" style="rounded=0;whiteSpace=wrap;html=1;" parent="1" vertex="1">
          <mxGeometry x="400" y="140" width="140" height="30" as="geometry" />
        </mxCell>
        <mxCell id="aShT70XuTfXJ-1r4DVtl-2" value="" style="rounded=0;whiteSpace=wrap;html=1;" parent="1" vertex="1">
          <mxGeometry x="400" y="140" width="190" height="120" as="geometry" />
        </mxCell>
        <mxCell id="aShT70XuTfXJ-1r4DVtl-3" value="&lt;font face=&quot;宋体-简&quot;&gt;中断号&lt;/font&gt;" style="rounded=0;whiteSpace=wrap;html=1;" parent="1" vertex="1">
          <mxGeometry x="400" y="140" width="50" height="30" as="geometry" />
        </mxCell>
        <mxCell id="aShT70XuTfXJ-1r4DVtl-4" value="&lt;font face=&quot;宋体-简&quot;&gt;协程id&lt;/font&gt;" style="rounded=0;whiteSpace=wrap;html=1;" parent="1" vertex="1">
          <mxGeometry x="445" y="140" width="40" height="30" as="geometry" />
        </mxCell>
        <mxCell id="aShT70XuTfXJ-1r4DVtl-6" value="&lt;font face=&quot;宋体-简&quot;&gt;消息类型&lt;/font&gt;" style="rounded=0;whiteSpace=wrap;html=1;" parent="1" vertex="1">
          <mxGeometry x="485" y="140" width="50" height="30" as="geometry" />
        </mxCell>
        <mxCell id="aShT70XuTfXJ-1r4DVtl-7" value="&lt;font face=&quot;宋体-简&quot;&gt;消息体&lt;/font&gt;" style="rounded=0;whiteSpace=wrap;html=1;" parent="1" vertex="1">
          <mxGeometry x="535" y="140" width="55" height="30" as="geometry" />
        </mxCell>
        <mxCell id="aShT70XuTfXJ-1r4DVtl-13" value="" style="rounded=0;whiteSpace=wrap;html=1;" parent="1" vertex="1">
          <mxGeometry x="400" y="170" width="140" height="30" as="geometry" />
        </mxCell>
        <mxCell id="aShT70XuTfXJ-1r4DVtl-18" value="" style="rounded=0;whiteSpace=wrap;html=1;" parent="1" vertex="1">
          <mxGeometry x="60" y="190" width="290" height="50" as="geometry" />
        </mxCell>
        <mxCell id="aShT70XuTfXJ-1r4DVtl-19" style="edgeStyle=orthogonalEdgeStyle;rounded=0;orthogonalLoop=1;jettySize=auto;html=1;exitX=0.5;exitY=1;exitDx=0;exitDy=0;" parent="1" source="aShT70XuTfXJ-1r4DVtl-18" target="aShT70XuTfXJ-1r4DVtl-18" edge="1">
          <mxGeometry relative="1" as="geometry" />
        </mxCell>
        <mxCell id="aShT70XuTfXJ-1r4DVtl-21" value="&lt;font face=&quot;宋体-简&quot;&gt;请求处理状态标识符&lt;/font&gt;" style="rounded=0;whiteSpace=wrap;html=1;" parent="1" vertex="1">
          <mxGeometry x="60" y="190" width="110" height="25" as="geometry" />
        </mxCell>
        <mxCell id="aShT70XuTfXJ-1r4DVtl-22" value="&lt;font face=&quot;Times New Roman&quot;&gt;item 0 &lt;/font&gt;&lt;font face=&quot;宋体-简&quot;&gt;索引&lt;/font&gt;" style="rounded=0;whiteSpace=wrap;html=1;" parent="1" vertex="1">
          <mxGeometry x="170" y="190" width="60" height="25" as="geometry" />
        </mxCell>
        <mxCell id="aShT70XuTfXJ-1r4DVtl-23" value="&lt;font face=&quot;Times New Roman&quot;&gt;item 1&amp;nbsp;&lt;/font&gt;&lt;span style=&quot;font-family: 宋体-简;&quot;&gt;索引&lt;/span&gt;" style="rounded=0;whiteSpace=wrap;html=1;" parent="1" vertex="1">
          <mxGeometry x="230" y="190" width="60" height="25" as="geometry" />
        </mxCell>
        <mxCell id="aShT70XuTfXJ-1r4DVtl-24" value="&lt;font face=&quot;Times New Roman&quot;&gt;...&lt;/font&gt;" style="rounded=0;whiteSpace=wrap;html=1;" parent="1" vertex="1">
          <mxGeometry x="290" y="190" width="60" height="25" as="geometry" />
        </mxCell>
        <mxCell id="aShT70XuTfXJ-1r4DVtl-26" value="&lt;font face=&quot;宋体-简&quot;&gt;相应处理状态标识符&lt;/font&gt;" style="rounded=0;whiteSpace=wrap;html=1;" parent="1" vertex="1">
          <mxGeometry x="60" y="215" width="110" height="25" as="geometry" />
        </mxCell>
        <mxCell id="aShT70XuTfXJ-1r4DVtl-27" value="&lt;font face=&quot;Times New Roman&quot;&gt;item 2&amp;nbsp;&lt;/font&gt;&lt;span style=&quot;font-family: 宋体-简;&quot;&gt;索引&lt;/span&gt;" style="rounded=0;whiteSpace=wrap;html=1;" parent="1" vertex="1">
          <mxGeometry x="170" y="215" width="60" height="25" as="geometry" />
        </mxCell>
        <mxCell id="aShT70XuTfXJ-1r4DVtl-28" value="&lt;font face=&quot;Times New Roman&quot;&gt;item 3&amp;nbsp;&lt;/font&gt;&lt;span style=&quot;font-family: 宋体-简;&quot;&gt;索引&lt;/span&gt;" style="rounded=0;whiteSpace=wrap;html=1;" parent="1" vertex="1">
          <mxGeometry x="230" y="215" width="60" height="25" as="geometry" />
        </mxCell>
        <mxCell id="aShT70XuTfXJ-1r4DVtl-29" value="&lt;font face=&quot;Times New Roman&quot;&gt;...&lt;/font&gt;" style="rounded=0;whiteSpace=wrap;html=1;" parent="1" vertex="1">
          <mxGeometry x="290" y="215" width="60" height="25" as="geometry" />
        </mxCell>
        <mxCell id="aShT70XuTfXJ-1r4DVtl-30" value="..." style="text;html=1;align=center;verticalAlign=middle;whiteSpace=wrap;rounded=0;" parent="1" vertex="1">
          <mxGeometry x="475" y="210" width="60" height="30" as="geometry" />
        </mxCell>
        <mxCell id="aShT70XuTfXJ-1r4DVtl-32" value="" style="curved=1;endArrow=classic;html=1;rounded=0;exitX=0.5;exitY=0;exitDx=0;exitDy=0;entryX=0;entryY=0.5;entryDx=0;entryDy=0;" parent="1" source="aShT70XuTfXJ-1r4DVtl-22" target="aShT70XuTfXJ-1r4DVtl-3" edge="1">
          <mxGeometry width="50" height="50" relative="1" as="geometry">
            <mxPoint x="210" y="124.65999999999997" as="sourcePoint" />
            <mxPoint x="400" y="125" as="targetPoint" />
            <Array as="points">
              <mxPoint x="180" y="170" />
              <mxPoint x="260" y="140" />
            </Array>
          </mxGeometry>
        </mxCell>
        <mxCell id="aShT70XuTfXJ-1r4DVtl-34" value="" style="curved=1;endArrow=classic;html=1;rounded=0;exitX=0.5;exitY=0;exitDx=0;exitDy=0;entryX=0;entryY=0.5;entryDx=0;entryDy=0;" parent="1" source="aShT70XuTfXJ-1r4DVtl-23" edge="1">
          <mxGeometry width="50" height="50" relative="1" as="geometry">
            <mxPoint x="210" y="200" as="sourcePoint" />
            <mxPoint x="399.9999999999999" y="185" as="targetPoint" />
            <Array as="points">
              <mxPoint x="240" y="170" />
              <mxPoint x="300" y="160" />
            </Array>
          </mxGeometry>
        </mxCell>
        <mxCell id="aShT70XuTfXJ-1r4DVtl-35" value="" style="curved=1;endArrow=classic;html=1;rounded=0;exitX=0.5;exitY=1;exitDx=0;exitDy=0;entryX=-0.004;entryY=0.856;entryDx=0;entryDy=0;entryPerimeter=0;" parent="1" source="aShT70XuTfXJ-1r4DVtl-27" target="aShT70XuTfXJ-1r4DVtl-2" edge="1">
          <mxGeometry width="50" height="50" relative="1" as="geometry">
            <mxPoint x="240" y="350" as="sourcePoint" />
            <mxPoint x="290" y="300" as="targetPoint" />
            <Array as="points">
              <mxPoint x="180" y="260" />
              <mxPoint x="240" y="290" />
            </Array>
          </mxGeometry>
        </mxCell>
        <mxCell id="aShT70XuTfXJ-1r4DVtl-36" value="" style="curved=1;endArrow=classic;html=1;rounded=0;exitX=0.5;exitY=1;exitDx=0;exitDy=0;entryX=0.005;entryY=0.66;entryDx=0;entryDy=0;entryPerimeter=0;" parent="1" source="aShT70XuTfXJ-1r4DVtl-28" target="aShT70XuTfXJ-1r4DVtl-2" edge="1">
          <mxGeometry width="50" height="50" relative="1" as="geometry">
            <mxPoint x="210" y="250" as="sourcePoint" />
            <mxPoint x="409" y="233" as="targetPoint" />
            <Array as="points">
              <mxPoint x="260" y="270" />
              <mxPoint x="330" y="260" />
            </Array>
          </mxGeometry>
        </mxCell>
        <mxCell id="aShT70XuTfXJ-1r4DVtl-38" value="&lt;font face=&quot;Times New Roman&quot;&gt;IPCItems&lt;/font&gt;" style="text;html=1;align=center;verticalAlign=middle;whiteSpace=wrap;rounded=0;" parent="1" vertex="1">
          <mxGeometry x="450" y="110" width="60" height="30" as="geometry" />
        </mxCell>
        <mxCell id="aShT70XuTfXJ-1r4DVtl-39" value="&lt;font face=&quot;宋体-简&quot;&gt;消息队列&lt;/font&gt;" style="text;html=1;align=center;verticalAlign=middle;whiteSpace=wrap;rounded=0;" parent="1" vertex="1">
          <mxGeometry x="50" y="160" width="110" height="30" as="geometry" />
        </mxCell>
        <mxCell id="cYknnMIZBNakym7kxoLE-2" value="" style="rounded=0;whiteSpace=wrap;html=1;" vertex="1" parent="1">
          <mxGeometry x="400" y="170" width="140" height="30" as="geometry" />
        </mxCell>
        <mxCell id="cYknnMIZBNakym7kxoLE-3" value="&lt;font face=&quot;宋体-简&quot;&gt;中断号&lt;/font&gt;" style="rounded=0;whiteSpace=wrap;html=1;" vertex="1" parent="1">
          <mxGeometry x="400" y="170" width="50" height="30" as="geometry" />
        </mxCell>
        <mxCell id="cYknnMIZBNakym7kxoLE-4" value="&lt;font face=&quot;宋体-简&quot;&gt;协程id&lt;/font&gt;" style="rounded=0;whiteSpace=wrap;html=1;" vertex="1" parent="1">
          <mxGeometry x="445" y="170" width="40" height="30" as="geometry" />
        </mxCell>
        <mxCell id="cYknnMIZBNakym7kxoLE-5" value="&lt;font face=&quot;宋体-简&quot;&gt;消息类型&lt;/font&gt;" style="rounded=0;whiteSpace=wrap;html=1;" vertex="1" parent="1">
          <mxGeometry x="485" y="170" width="50" height="30" as="geometry" />
        </mxCell>
        <mxCell id="cYknnMIZBNakym7kxoLE-6" value="&lt;font face=&quot;宋体-简&quot;&gt;消息体&lt;/font&gt;" style="rounded=0;whiteSpace=wrap;html=1;" vertex="1" parent="1">
          <mxGeometry x="535" y="170" width="55" height="30" as="geometry" />
        </mxCell>
      </root>
    </mxGraphModel>
  </diagram>
</mxfile>
